<svg xmlns="http://www.w3.org/2000/svg">

    <symbol id="signal" viewBox="0 0 17 10" fill="none" xmlns="http://www.w3.org/2000/svg">
        <rect x="13.5" width="3" height="10" rx="1" fill="black"/>
        <rect x="9" y="2" width="3" height="8" rx="1" fill="black"/>
        <rect x="4.5" y="4" width="3" height="6" rx="1" fill="black"/>
        <rect y="5" width="3" height="5" rx="1" fill="black"/>
    </symbol>

    <symbol id="wifi" viewBox="0 0 15 10" fill="none" xmlns="http://www.w3.org/2000/svg">
        <path fill-rule="evenodd" clip-rule="evenodd"
              d="M0.782471 3.28249L1.84313 4.34315C3.29085 2.89543 5.29085 2 7.49999 2C9.70912 2 11.7091 2.89543 13.1568 4.34315L14.2175 3.28249C12.4983 1.56332 10.1233 0.5 7.49999 0.5C4.87663 0.5 2.50163 1.56332 0.782471 3.28249ZM12.0962 5.40381C10.9199 4.22754 9.29491 3.5 7.49999 3.5C5.70506 3.5 4.08006 4.22754 2.90379 5.40381L3.96445 6.46447C4.86927 5.55964 6.11927 5 7.49999 5C8.8807 5 10.1307 5.55964 11.0355 6.46447L12.0962 5.40381ZM9.97486 7.52513C9.34148 6.89175 8.46648 6.5 7.49999 6.5C6.53349 6.5 5.65849 6.89175 5.02511 7.52513L7.49999 10L9.97486 7.52513Z"
              fill="#030303"/>
    </symbol>

    <symbol id="plus" viewBox="0 0 20 19" fill="none" xmlns="http://www.w3.org/2000/svg">
        <path fill-rule="evenodd" clip-rule="evenodd" d="M10.5 0H8.5V8H0.5V10H8.5V19H10.5V10H19.5V8H10.5V0Z"
              fill="#007AFF"/>
    </symbol>

    <symbol id="back" viewBox="0 0 14 22" fill="none" xmlns="http://www.w3.org/2000/svg">
        <path fill-rule="evenodd" clip-rule="evenodd" d="M0 11L11.76 0L14 2.09524L4.48 11L14 19.9048L11.76 22L0 11Z"
              fill="#007AFF"/>
    </symbol>

    <symbol id="video" viewBox="-2 -2 36 23" fill="none" xmlns="http://www.w3.org/2000/svg">
        <path d=" M 3.099 0.5 L 14.901 0.5 C 16.336 0.5 17.5 1.664 17.5 3.099 L 17.5 13.026 C 17.5 14.461 16.336 15.625 14.901 15.625 L 3.099 15.625 C 1.664 15.625 0.5 14.461 0.5 13.026 L 0.5 3.099 C 0.5 1.664 1.664 0.5 3.099 0.5 Z  M 24.125 1.375 L 24.125 14.5 C 23.776 14.417 19.527 10.972 18.375 9.875 L 18.5 6 C 19.842 4.884 23.812 1.458 24.125 1.375 Z "
              fill-rule="evenodd" fill="none" stroke-width="2"
              stroke="rgb(0,122,255)" stroke-linejoin="round" stroke-linecap="round" stroke-miterlimit="4"/>
    </symbol>

    <symbol id="audio" viewBox="0 0 22 23" fill="none" xmlns="http://www.w3.org/2000/svg">
        <path d="M7.64362 16.7375C2.64793 12.0082 0.5 7.37162 0.5 4.18495C0.5 2.69886 1.24203 1.79615 2.09371 1.2437C2.97277 0.673497 3.94003 0.5 4.24796 0.5C4.40781 0.5 4.62287 0.572294 4.91217 0.803527C5.20068 1.03413 5.52227 1.39057 5.88443 1.87938C6.60938 2.85786 7.42845 4.27078 8.41631 6.01282C8.42147 6.02191 8.45968 6.09819 8.34252 6.36016C8.23055 6.61053 8.03768 6.89633 7.80575 7.23667L7.79303 7.25533C7.57844 7.57019 7.33148 7.93254 7.17039 8.28558C7.0104 8.63621 6.87721 9.09969 7.07314 9.55265C7.57036 10.7022 8.48166 11.897 9.46313 12.9329C10.4483 13.9726 11.5365 14.8859 12.4218 15.4662C12.8584 15.7523 13.2931 15.7898 13.699 15.653C14.0596 15.5316 14.3685 15.2798 14.6073 15.0779C14.6486 15.0431 14.6883 15.0092 14.7267 14.9764C14.9366 14.7975 15.109 14.6505 15.2934 14.5434C15.4927 14.4276 15.6539 14.3916 15.8225 14.4262C16.7786 14.623 17.9176 15.3385 18.9187 16.116C19.8362 16.8285 20.5766 17.5436 20.8676 17.8245C20.8886 17.8448 20.9073 17.8629 20.9235 17.8785C21.3909 18.328 21.5251 18.7722 21.4963 19.1911C21.4658 19.6353 21.2466 20.1119 20.8921 20.5791C20.5409 21.0421 20.0831 21.4604 19.6384 21.7809C19.1835 22.1089 18.7875 22.3021 18.5698 22.3564C17.2812 22.6779 15.8185 22.4757 14.032 21.5833C12.2379 20.6871 10.1505 19.1107 7.64362 16.7375Z"
              stroke-width="2"
              stroke="#007CFF"/>
    </symbol>

    <symbol id="camera" viewBox="0 0 28 22" fill="none" xmlns="http://www.w3.org/2000/svg">
        <path xmlns="http://www.w3.org/2000/svg"
              d=" M 23.457 17.265 C 23.758 18.966 22.421 20.473 20.87 20.182 L 20.819 20.172 L 6.651 20.172 C 5.25 20.367 4.012 19.164 4.012 17.609 L 4.012 8.146 L 4.009 8.102 C 3.88 6.452 5.157 5.086 6.651 5.276 L 8.734 5.276 C 9.17 5.276 9.817 5.122 10.142 4.802 Q 11.971 3.325 12.407 3.325 L 15.804 3.349 Q 16.213 3.349 18.266 4.925 C 18.583 5.209 19.308 5.276 19.717 5.276 L 21.271 5.276 L 21.529 5.276 C 22.722 5.343 23.362 6.377 23.457 7.653 L 23.457 17.265 Z  M 17.984 12.491 C 17.984 14.829 16.088 16.725 13.75 16.725 C 11.412 16.725 9.516 14.829 9.516 12.491 C 9.516 10.152 11.412 8.257 13.75 8.257 C 16.088 8.257 17.984 10.152 17.984 12.491 Z "
              fill-rule="evenodd" fill="none" stroke-width="2"
              stroke="rgb(7,125,255)" stroke-linejoin="round" stroke-linecap="round" stroke-miterlimit="4"/>
    </symbol>

    <symbol id="mic" viewBox="0 0 17 21" fill="none" xmlns="http://www.w3.org/2000/svg">
        <line x1="8.014" y1="19.999" x2="7.985" y2="24.495" mask="url(#_mask_mPyUCH7QOpjqBfXC1V5DMtQap8APfgsS)"
              stroke-width="2" stroke="rgb(0,122,255)" stroke-linejoin="miter"
              stroke-linecap="butt" stroke-miterlimit="4"/>
        <path d=" M 8 1 C 5.791 1 4 2.791 4 5 L 4 12 C 4 14.209 5.791 16 8 16 C 10.209 16 12 14.209 12 12 L 12 5 C 12 2.791 10.209 1 8 1 Z  M 0.496 12.095 C 1.045 21.866 14.917 21.892 15.544 12.095"
              fill-rule="evenodd" fill="none" stroke-width="2"
              stroke="rgb(0,122,255)" stroke-linejoin="miter" stroke-linecap="butt" stroke-miterlimit="4"/>
    </symbol>

    <symbol id="read" viewBox="0 0 13 8" fill="none" xmlns="http://www.w3.org/2000/svg">
        <path fill-rule="evenodd" clip-rule="evenodd"
              d="M9.43303 0L3.76736 5.76892L0.454599 3.69876L0 4.17237L3.76736 8L10 0.45419L9.43303 0Z" fill="#007AFF"/>
        <path fill-rule="evenodd" clip-rule="evenodd"
              d="M6.76733 5.76892L12.433 0L13 0.45419L6.76733 8L4.79883 6H4.99997V4.66449L6.76733 5.76892Z"
              fill="#007AFF"/>
    </symbol>

    <symbol id="msg" viewBox="0 0 10 12">
        <path
                d=" M 9.002 0 C 8.707 0.957 6.894 6.111 1.632 7.576 C -0.797 8.252 -0.404 8.526 2.079 9.801 C 3.566 10.565 8.915 11.271 9.412 11.335 Q 9.055 0.091 9.002 0 Z "
                fill-rule="evenodd" fill="currentColor"/>
    </symbol>

    <symbol id="attach" viewBox="-2 -2 22 22">
        <path xmlns="http://www.w3.org/2000/svg"
              d=" M 5.261 0 L 10.989 0 C 13.893 0 16.25 2.357 16.25 5.261 L 16.25 9.125 C 15.125 12.625 13.5 14.625 9.25 16 L 5.261 16 C 2.357 16 0 13.643 0 10.739 L 0 5.261 C 0 2.357 2.357 0 5.261 0 Z  M 16.125 8.875 C 10.625 8.25 8.5 10.625 9.375 15.875"
              fill-rule="evenodd" fill="none" stroke-width="2" stroke="rgb(7,125,255)" stroke-linejoin="miter"
              stroke-linecap="square" stroke-miterlimit="3"/>
    </symbol>

    <symbol id="delete" xmlns="http://www.w3.org/2000/svg" viewBox="0 0 30 30">
        <path fill="currentColor"
              d="M 13 3 A 1.0001 1.0001 0 0 0 11.986328 4 L 6 4 A 1.0001 1.0001 0 1 0 6 6 L 24 6 A 1.0001 1.0001 0 1 0 24 4 L 18.013672 4 A 1.0001 1.0001 0 0 0 17 3 L 13 3 z M 6 8 L 6 24 C 6 25.105 6.895 26 8 26 L 22 26 C 23.105 26 24 25.105 24 24 L 24 8 L 6 8 z M 12 13 C 12.25575 13 12.511531 13.097469 12.707031 13.292969 L 15 15.585938 L 17.292969 13.292969 C 17.683969 12.901969 18.316031 12.901969 18.707031 13.292969 C 19.098031 13.683969 19.098031 14.316031 18.707031 14.707031 L 16.414062 17 L 18.707031 19.292969 C 19.098031 19.683969 19.098031 20.316031 18.707031 20.707031 C 18.512031 20.902031 18.256 21 18 21 C 17.744 21 17.487969 20.902031 17.292969 20.707031 L 15 18.414062 L 12.707031 20.707031 C 12.512031 20.902031 12.256 21 12 21 C 11.744 21 11.487969 20.902031 11.292969 20.707031 C 10.901969 20.316031 10.901969 19.683969 11.292969 19.292969 L 13.585938 17 L 11.292969 14.707031 C 10.901969 14.316031 10.901969 13.683969 11.292969 13.292969 C 11.488469 13.097469 11.74425 13 12 13 z"></path>
    </symbol>

    <symbol id="arrow" xmlns="http://www.w3.org/2000/svg" viewBox="0 0 50 50">
        <path fill="currentColor"
              d="M 28 39 C 27.847656 39 27.695313 38.964844 27.558594 38.894531 C 27.214844 38.726563 27 38.382813 27 38 L 27 30 L 5 30 C 4.449219 30 4 29.554688 4 29 L 4 21 C 4 20.449219 4.449219 20 5 20 L 27 20 L 27 12 C 27 11.621094 27.214844 11.273438 27.558594 11.105469 C 27.898438 10.9375 28.304688 10.976563 28.609375 11.207031 L 45.609375 24.207031 C 45.855469 24.394531 46 24.6875 46 25 C 46 25.3125 45.855469 25.605469 45.605469 25.792969 L 28.605469 38.792969 C 28.429688 38.929688 28.214844 39 28 39 Z"></path>
    </symbol>
</svg>
